
<svg xmlns="http://www.w3.org/2000/svg" version="1.1" xmlns:xlink="http://www.w3.org/1999/xlink" preserveAspectRatio="none" x="0px" y="0px" width="152px" height="150px" viewBox="0 0 152 150">
<defs>
<g id="Symbol_2_0_Layer0_0_FILL">
<path fill="#009BE5" stroke="none" d="
M 59.15 -13.85
L 59.15 -25.35
Q 33.1 -32.75 2.9 -11.5 -27.3 -32.75 -53.35 -25.35
L -53.35 -13.85
Q -27.3 -21.25 2.9 0 33.1 -21.25 59.15 -13.85 Z"/>
</g>

<g id="Symbol_5_0_Layer0_0_FILL">
<path fill="#009BE5" stroke="none" d="
M 18.75 -18.75
Q 11 -26.5 0 -26.5 -11 -26.5 -18.75 -18.75 -26.5 -11 -26.5 0 -26.5 11 -18.75 18.75 -11 26.5 0 26.5 11 26.5 18.75 18.75 26.5 11 26.5 0 26.5 -11 18.75 -18.75 Z"/>
</g>

<path id="Symbol_2_0_Layer0_0_1_STROKES" stroke="#009BE5" stroke-width="3" stroke-linejoin="round" stroke-linecap="round" fill="none" d="
M -53.35 -25.35
L -53.35 -13.85
Q -27.3 -21.25 2.9 0 33.1 -21.25 59.15 -13.85
L 59.15 -25.35
Q 33.1 -32.75 2.9 -11.5 -27.3 -32.75 -53.35 -25.35
L -42.85 -75.4
Q -23.85 -82.9 2.9 -65.8 29.65 -82.9 48.65 -75.4
L 59.15 -25.35
M 2.9 -65.8
L 2.9 -11.5"/>

<path id="Symbol_3_0_Layer0_0_1_STROKES" stroke="#18202C" stroke-width="3" stroke-linejoin="round" stroke-linecap="round" fill="none" d="
M -6.45 -14.65
Q -6.45 -14.95 -6.45 -15.3 -6.45 -18 -4.55 -19.9 -2.65 -21.8 0.05 -21.8 2.75 -21.8 4.65 -19.9 6.6 -18 6.6 -15.3 6.6 -14.8 6.5 -14.35 9.15 -13.15 11.35 -10.95 16.15 -6.15 16.15 0.7 16.15 1.7 16.05 2.65 17.4 3.1 18.5 4.2 20.4 6.1 20.4 8.8 20.4 11.5 18.5 13.4 16.6 15.35 13.9 15.35 11.5 15.35 9.7 13.8 5.4 17.15 -0.3 17.15 -5.7 17.15 -9.85 14.15 -11.6 15.55 -13.9 15.55 -16.6 15.55 -18.5 13.6 -20.4 11.7 -20.4 9 -20.4 6.3 -18.5 4.4 -17.65 3.55 -16.6 3.1 -16.8 1.9 -16.8 0.7 -16.8 -6.15 -11.95 -10.95 -9.45 -13.45 -6.45 -14.65 -6.25 -12.4 -4.55 -10.7 -4 -10.15 -3.35 -9.7 -1.85 -8.8 0.05 -8.8 1.75 -8.8 3.1 -9.5 3.95 -9.95 4.65 -10.7 6.25 -12.25 6.5 -14.35
M 9.7 13.8
Q 9.5 13.6 9.25 13.4 7.4 11.5 7.35 8.85
L 7.35 8.8
Q 7.35 6.1 9.25 4.2 9.85 3.65 10.5 3.25 12 2.3 13.9 2.3 15.05 2.3 16.05 2.65
M -16.6 3.1
Q -15.4 2.5 -13.9 2.5 -12.2 2.5 -10.8 3.25 -10 3.7 -9.3 4.4 -7.4 6.25 -7.35 8.85 -7.35 8.95 -7.35 9 -7.35 11.7 -9.3 13.6 -9.55 13.9 -9.85 14.15"/>
</defs>

<g transform="matrix( 1, 0, 0, 1, 76,152.1) ">
<g transform="matrix( 1, 0, 0, 1, -2.9,-36.65) ">
<g transform="matrix( 1, 0, 0, 1, 0,0) ">
<use xlink:href="#Symbol_2_0_Layer0_0_FILL"/>

<use xlink:href="#Symbol_2_0_Layer0_0_1_STROKES"/>
</g>
</g>

<g transform="matrix( 1.28265380859375, 0, 0, 1.28265380859375, 0.15,-112.65) ">
<g transform="matrix( 1.072357177734375, 0, 0, 1.072357177734375, -0.1,-0.1) ">
<g transform="matrix( 1, 0, 0, 1, 0,0) ">
<use xlink:href="#Symbol_5_0_Layer0_0_FILL"/>
</g>
</g>

<g transform="matrix( 1, 0, 0, 1, 0,0) ">
<use xlink:href="#Symbol_3_0_Layer0_0_1_STROKES"/>
</g>
</g>

<g transform="matrix( 1, 0, 0, 1, -73.9,-40) ">
<clipPath id="Mask_Mask_1">
<rect x="-2" y="-2" width="151.85" height="42" fill="#FFFFFF" stroke="none"/>
</clipPath>

<text clip-path="url(#Mask_Mask_1)" writing-mode="lr"><tspan x="3.5" y="28.65" baseline-shift="0%" font-family="Arial" font-size="24" fill="#009BE5" xml:space="preserve">Collab Learn</tspan></text>
</g>
</g>
</svg>
